HIERARCHY
ROOT joint_0
{
	OFFSET 0.000000 0.000000 0.000000
	CHANNELS 6 Xposition Yposition Zposition Zrotation Yrotation Xrotation 
	JOINT joint_1
	{
		OFFSET 17.107422 0.519409 105.452026
		CHANNELS 3 Zrotation Yrotation Xrotation
		JOINT joint_2
		{
			OFFSET 6.110352 -1.434082 97.381958
			CHANNELS 3 Zrotation Yrotation Xrotation
			JOINT joint_3
			{
				OFFSET 6.305908 -1.739990 97.255005
				CHANNELS 3 Zrotation Yrotation Xrotation
				JOINT joint_4
				{
					OFFSET 22.074707 -0.492493 131.077026
					CHANNELS 3 Zrotation Yrotation Xrotation
					JOINT joint_5
					{
						OFFSET 34.162842 2.248718 78.700928
						CHANNELS 3 Zrotation Yrotation Xrotation
						End Site
						{
							OFFSET 0.000000 0.000000 0.000000
						}
					}
				}
				JOINT joint_6
				{
					OFFSET 17.059082 -28.836914 72.664062
					CHANNELS 3 Zrotation Yrotation Xrotation
					JOINT joint_7
					{
						OFFSET 22.639893 -134.803833 -24.691040
						CHANNELS 3 Zrotation Yrotation Xrotation
						JOINT joint_8
						{
							OFFSET 7.301758 -32.590759 -269.966064
							CHANNELS 3 Zrotation Yrotation Xrotation
							JOINT joint_9
							{
								OFFSET 35.581055 -8.517151 -242.326965
								CHANNELS 3 Zrotation Yrotation Xrotation
								End Site
								{
									OFFSET 0.000000 0.000000 0.000000
								}
							}
						}
					}
				}
				JOINT joint_10
				{
					OFFSET 7.819092 28.232056 74.432983
					CHANNELS 3 Zrotation Yrotation Xrotation
					JOINT joint_11
					{
						OFFSET -23.457031 135.063843 -22.406982
						CHANNELS 3 Zrotation Yrotation Xrotation
						JOINT joint_12
						{
							OFFSET 17.896973 48.138672 -267.131958
							CHANNELS 3 Zrotation Yrotation Xrotation
							JOINT joint_13
							{
								OFFSET 46.526367 17.567627 -239.975037
								CHANNELS 3 Zrotation Yrotation Xrotation
								End Site
								{
									OFFSET 0.000000 0.000000 0.000000
								}
							}
						}
					}
				}
			}
		}
	}
	JOINT joint_14
	{
		OFFSET 10.553467 -100.140320 -126.306030
		CHANNELS 3 Zrotation Yrotation Xrotation
		JOINT joint_15
		{
			OFFSET -52.094238 -9.565002 -436.052002
			CHANNELS 3 Zrotation Yrotation Xrotation
			JOINT joint_16
			{
				OFFSET -55.682617 -11.310120 -462.482971
				CHANNELS 3 Zrotation Yrotation Xrotation
				JOINT joint_17
				{
					OFFSET 179.119385 -5.942566 -84.087004
					CHANNELS 3 Zrotation Yrotation Xrotation
					End Site
					{
						OFFSET 0.000000 0.000000 0.000000
					}
				}
			}
		}
	}
	JOINT joint_18
	{
		OFFSET -22.235352 101.620483 -123.583984
		CHANNELS 3 Zrotation Yrotation Xrotation
		JOINT joint_19
		{
			OFFSET -38.118408 12.306396 -437.429016
			CHANNELS 3 Zrotation Yrotation Xrotation
			JOINT joint_20
			{
				OFFSET -51.789307 8.010498 -463.006004
				CHANNELS 3 Zrotation Yrotation Xrotation
				JOINT joint_21
				{
					OFFSET 170.088135 59.632324 -83.078003
					CHANNELS 3 Zrotation Yrotation Xrotation
					End Site
					{
						OFFSET 0.000000 0.000000 0.000000
					}
				}
			}
		}
	}
}
MOTION
Frames: 10
Frame Time: 0.016667
-3325.150879 881.133179 1125.668945 -4.656642 -2.484844 0.722231 -0.664601 -0.835436 0.181157 -0.631910 0.081081 -0.137032 -0.639803 -0.011681 -0.033786 0.039997 -3.736508 0.194220 0.000000 0.000000 0.000000 -4.713022 1.241660 1.531940 -0.004026 -0.282005 -2.338000 0.461973 -3.269966 1.845145 0.000000 0.000000 0.000000 -0.297709 1.295813 -1.469327 0.614389 1.448255 -1.444956 0.347072 -1.475232 2.336928 0.000000 0.000000 0.000000 2.750023 -1.394117 -2.621914 2.391792 3.174817 -0.509038 2.290142 -0.214539 1.064855 0.000000 0.000000 0.000000 0.622091 1.514123 -0.058247 0.612654 -0.080461 -0.492074 0.592137 1.164827 -0.119670 0.000000 0.000000 0.000000 
-3323.547607 880.815125 1125.948975 -4.577192 -2.158068 0.688894 -0.681436 -0.655911 0.214591 -0.649239 0.053750 -0.134607 -0.655632 0.017245 -0.040596 0.052783 -4.327307 0.214176 0.000000 0.000000 0.000000 -4.795386 1.277358 1.636547 0.033674 -0.318757 -2.536446 0.470522 -2.996150 2.003843 0.000000 0.000000 0.000000 -0.307747 1.369203 -1.533775 0.654661 1.556548 -1.360686 0.298984 -1.772198 2.205788 0.000000 0.000000 0.000000 2.724359 -1.622228 -2.590051 2.365655 3.090371 -0.500522 2.261630 -0.112832 1.055070 0.000000 0.000000 0.000000 0.592271 1.268479 0.000070 0.594461 -0.165253 -0.510002 0.580915 1.286974 -0.167913 0.000000 0.000000 0.000000 
-3321.186035 880.531555 1126.218994 -4.488249 -1.743697 0.654655 -0.688317 -0.446061 0.250578 -0.656728 0.021516 -0.139233 -0.662294 0.050147 -0.042050 0.060022 -5.033577 0.257645 0.000000 0.000000 0.000000 -4.890495 1.599380 1.463054 0.016281 0.014489 -2.556476 0.654716 -4.227741 2.637123 0.000000 0.000000 0.000000 -0.376760 1.524678 -1.507089 0.710211 1.726640 -1.377863 0.238916 -2.184701 2.053932 0.000000 0.000000 0.000000 2.695764 -1.870430 -2.577666 2.333219 2.948474 -0.475559 2.228578 -0.047527 1.041996 0.000000 0.000000 0.000000 0.572383 0.984219 0.052660 0.585633 -0.291060 -0.527309 0.579511 1.413203 -0.212795 0.000000 0.000000 0.000000 
-3317.841553 880.308899 1126.463013 -4.384177 -1.240118 0.626611 -0.665183 -0.188540 0.268605 -0.637161 -0.025296 -0.135133 -0.640950 0.093576 -0.043872 0.066238 -5.844153 0.306504 0.000000 0.000000 0.000000 -4.999736 2.532445 1.058886 -0.032838 0.999750 -2.545268 1.212035 -8.201582 4.136667 0.000000 0.000000 0.000000 -0.493384 1.771804 -1.370743 0.785938 1.956551 -1.535960 0.179142 -2.709622 1.939830 0.000000 0.000000 0.000000 2.655374 -2.097602 -2.597044 2.286076 2.695437 -0.432499 2.182146 -0.030321 1.021102 0.000000 0.000000 0.000000 0.579837 0.669030 0.088516 0.602281 -0.468799 -0.546411 0.604184 1.563795 -0.253493 0.000000 0.000000 0.000000 
-3313.704590 880.112488 1126.718018 -4.266935 -0.652454 0.603915 -0.622340 0.119174 0.271429 -0.601896 -0.081006 -0.105316 -0.601463 0.133909 -0.058224 0.086900 -6.774585 0.314319 0.000000 0.000000 0.000000 -5.126002 4.000988 0.790943 0.001231 2.414133 -2.817976 2.090175 -14.225671 6.072776 0.000000 0.000000 0.000000 -0.633009 2.088379 -1.177909 0.880340 2.238963 -1.771090 0.120921 -3.320433 1.860345 0.000000 0.000000 0.000000 2.604261 -2.320385 -2.639045 2.226342 2.348253 -0.376263 2.123443 -0.031354 0.993841 0.000000 0.000000 0.000000 0.610375 0.319252 0.110570 0.640300 -0.698909 -0.565751 0.652029 1.754909 -0.297093 0.000000 0.000000 0.000000 
-3308.318604 880.091614 1126.781982 -4.146824 0.036269 0.577092 -0.611295 0.429970 0.325476 -0.593668 -0.136656 -0.111085 -0.592567 0.175620 -0.055135 0.097521 -7.789674 0.331200 0.000000 0.000000 0.000000 -5.244637 5.691230 0.221446 0.083316 4.091561 -2.854643 3.121197 -22.189797 7.673445 0.000000 0.000000 0.000000 -0.807385 2.577508 -0.894401 0.987242 2.677527 -2.053477 -0.012819 -4.182851 1.481985 0.000000 0.000000 0.000000 2.572348 -2.572674 -2.726147 2.174607 2.003344 -0.274012 2.081396 -0.169677 0.969777 0.000000 0.000000 0.000000 0.622541 -0.051833 0.129558 0.660536 -0.939048 -0.591977 0.675512 1.819551 -0.308234 0.000000 0.000000 0.000000 
-3301.349365 880.412354 1126.487061 -4.027194 0.847538 0.532767 -0.690474 0.675037 0.517531 -0.660309 -0.175761 -0.212114 -0.668536 0.198362 -0.002764 0.086360 -8.893454 0.378241 0.000000 0.000000 0.000000 -5.250074 7.569049 -0.852284 0.177753 6.024429 -2.469834 4.211629 -32.664125 8.562492 0.000000 0.000000 0.000000 -0.985385 3.351513 -0.553135 1.107348 3.398675 -2.297730 -0.296031 -5.456754 0.460861 0.000000 0.000000 0.000000 2.582567 -2.878901 -2.886649 2.143117 1.713667 -0.077001 2.076834 -0.532377 0.955742 0.000000 0.000000 0.000000 0.577387 -0.434788 0.161093 0.626213 -1.171855 -0.630443 0.631557 1.621839 -0.260314 0.000000 0.000000 0.000000 
-3292.975586 881.017395 1125.911011 -3.905260 1.774236 0.475362 -0.849699 0.871855 0.818698 -0.796837 -0.194914 -0.362585 -0.819974 0.190634 0.075939 0.068567 -10.101401 0.393154 0.000000 0.000000 0.000000 -5.218834 9.791159 -1.830309 0.349052 8.025668 -2.275332 5.238830 -45.287399 8.822254 0.000000 0.000000 0.000000 -1.108552 4.357363 -0.273116 1.250081 4.373104 -2.418907 -0.687110 -7.078732 -1.069072 0.000000 0.000000 0.000000 2.623307 -3.224981 -3.112587 2.124190 1.440433 0.202216 2.098467 -1.059161 0.948389 0.000000 0.000000 0.000000 0.490990 -0.833456 0.201583 0.552475 -1.415197 -0.676967 0.539264 1.238006 -0.170778 0.000000 0.000000 0.000000 
-3283.309082 881.607849 1125.203003 -3.793331 2.766656 0.439655 -0.969608 1.224132 1.034603 -0.907478 -0.263526 -0.472146 -0.939875 0.251396 0.129599 0.014201 -11.304235 0.419202 0.000000 0.000000 0.000000 -5.486757 11.991322 -2.667457 0.568396 9.606427 -2.297803 6.015331 -57.983102 8.526620 0.000000 0.000000 0.000000 -1.384435 5.386395 -0.052032 1.426898 5.402342 -2.516836 -1.049013 -8.881931 -2.503556 0.000000 0.000000 0.000000 2.675928 -3.589315 -3.349631 2.120444 1.221009 0.441908 2.134053 -1.683101 0.944161 0.000000 0.000000 0.000000 0.411609 -1.246189 0.213878 0.484644 -1.621150 -0.719584 0.449871 0.810549 -0.064593 0.000000 0.000000 0.000000 
-3272.452393 881.922241 1124.418945 -3.711531 3.838882 0.451876 -0.959219 2.039178 0.975734 -0.927905 -0.469748 -0.468396 -0.956358 0.487837 0.114839 -0.108065 -12.570673 0.497257 0.000000 0.000000 0.000000 -6.316300 13.988801 -3.566010 0.686527 10.616919 -2.434894 6.626825 -70.777178 7.478287 0.000000 0.000000 0.000000 -2.148831 6.408892 0.251984 1.670622 6.429381 -2.779890 -1.325385 -11.058152 -3.548645 0.000000 0.000000 0.000000 2.738168 -4.009036 -3.558077 2.146779 1.079312 0.541947 2.186548 -2.388604 0.944911 0.000000 0.000000 0.000000 0.369907 -1.704538 0.169637 0.450720 -1.789067 -0.744055 0.396059 0.424833 0.044262 0.000000 0.000000 0.000000 
